<svg class="diagram-root" style="background: #f5f6f6" xmlns="http://www.w3.org/2000/svg" xmlns:xlink="http://www.w3.org/1999/xlink"><style>.diagram-root { font-family: "Helvetica Neue", sans-serif; font-size: 12px; } .t { overflow: visible; } .t-bg { y: 40; fill: #fff;   } .th { fill: #005aa0;   } .tht { fill: #fff; font-size: 14px;  } .tf { fill: #323c46; overflow: visible; } .tf.pk { fill: #005aa0; font-weight: bold; } .tf.fk { font-weight: bold; } .ty { fill: #adb1b5; font-weight: normal; text-anchor: end; } .r { fill: transparent; stroke: #c3c3c3; stroke-width: 1; } .l { stroke: 1; } .i { fill: #c2c7ce; stroke: #c2c7ce; } .i.ix { fill: #afb3b6; stroke: #000; } .fa { fill: transparent; overflow: visible; } .fa .bg.hover { fill: #f7f7f7; } .c { cy: 12; r: 4; stroke: #d2d2dc; fill: #d2d2dc; } .hr { fill: transparent; stroke: #323c46; stroke-opacity: 0.035; stroke-width: 13; } .dc { stroke: #fa5a3c; fill: #fa5a3c; } .x { stroke: white; stroke-width: 1; } .hl .th { fill: #1b9bff; } .hl .tht {  } .fhl .bg { fill: #e7f4ff; } .fhls .bg {  } .r.hl { stroke: #1b9bff; } .dim { opacity: 0.25; }</style><g class="drawing-wrapper" transform="translate(-348.555555555556, 230.66666666666677) scale(1,1)"><g class="rs"><path d="M 1309 -118.66999999999999 m -1, 0 a 1,1 0 1,0 2,0 a 1,1 0 1,0 -2,0 M 1309 -118.66999999999999 m -0.5, 0 a 0.5,0.5 0 1,0 1,0 a 0.5,0.5 0 1,0 -1,0  M1309 -118.66999999999999 L1309 -118.66999999999999 1297 -118.66999999999999 M 1309 -112.66999999999999 m -1, 0 a 1,1 0 1,0 2,0 a 1,1 0 1,0 -2,0 M 1309 -112.66999999999999 m -0.5, 0 a 0.5,0.5 0 1,0 1,0 a 0.5,0.5 0 1,0 -1,0  M1309 -112.66999999999999 L1309 -112.66999999999999 1302 -118.66999999999999 1309 -124.66999999999999 M 1309 -124.66999999999999 m -1, 0 a 1,1 0 1,0 2,0 a 1,1 0 1,0 -2,0 M 1309 -124.66999999999999 m -0.5, 0 a 0.5,0.5 0 1,0 1,0 a 0.5,0.5 0 1,0 -1,0  M1297 -118.66999999999999 Q 1260.97 -118.66999999999999, 1224.95 -68.05 T 1152.89 -17.439999999999998 M 1140.89 -17.439999999999998 m -1, 0 a 1,1 0 1,0 2,0 a 1,1 0 1,0 -2,0 M 1140.89 -17.439999999999998 m -0.5, 0 a 0.5,0.5 0 1,0 1,0 a 0.5,0.5 0 1,0 -1,0  M1140.89 -17.439999999999998 L1140.89 -17.439999999999998 1152.89 -17.439999999999998 M1146.89 -11.439999999999998 L1146.89 -11.439999999999998 1146.89 -23.439999999999998" id="h2369713365" class="r"></path><path d="M 1314 161.11 m -1, 0 a 1,1 0 1,0 2,0 a 1,1 0 1,0 -2,0 M 1314 161.11 m -0.5, 0 a 0.5,0.5 0 1,0 1,0 a 0.5,0.5 0 1,0 -1,0  M1314 161.11 L1314 161.11 1302 161.11 M 1314 167.11 m -1, 0 a 1,1 0 1,0 2,0 a 1,1 0 1,0 -2,0 M 1314 167.11 m -0.5, 0 a 0.5,0.5 0 1,0 1,0 a 0.5,0.5 0 1,0 -1,0  M1314 167.11 L1314 167.11 1307 161.11 1314 155.11 M 1314 155.11 m -1, 0 a 1,1 0 1,0 2,0 a 1,1 0 1,0 -2,0 M 1314 155.11 m -0.5, 0 a 0.5,0.5 0 1,0 1,0 a 0.5,0.5 0 1,0 -1,0  M1302 161.11 Q 1264.72 161.11, 1227.45 71.84 T 1152.89 -17.439999999999998 M 1140.89 -17.439999999999998 m -1, 0 a 1,1 0 1,0 2,0 a 1,1 0 1,0 -2,0 M 1140.89 -17.439999999999998 m -0.5, 0 a 0.5,0.5 0 1,0 1,0 a 0.5,0.5 0 1,0 -1,0  M1140.89 -17.439999999999998 L1140.89 -17.439999999999998 1152.89 -17.439999999999998 M1146.89 -11.439999999999998 L1146.89 -11.439999999999998 1146.89 -23.439999999999998" id="h1088180332" class="r"></path><path d="M 1316.11 442 m -1, 0 a 1,1 0 1,0 2,0 a 1,1 0 1,0 -2,0 M 1316.11 442 m -0.5, 0 a 0.5,0.5 0 1,0 1,0 a 0.5,0.5 0 1,0 -1,0  M1316.11 442 L1316.11 442 1304.11 442 M 1316.11 448 m -1, 0 a 1,1 0 1,0 2,0 a 1,1 0 1,0 -2,0 M 1316.11 448 m -0.5, 0 a 0.5,0.5 0 1,0 1,0 a 0.5,0.5 0 1,0 -1,0  M1316.11 448 L1316.11 448 1309.11 442 1316.11 436 M 1316.11 436 m -1, 0 a 1,1 0 1,0 2,0 a 1,1 0 1,0 -2,0 M 1316.11 436 m -0.5, 0 a 0.5,0.5 0 1,0 1,0 a 0.5,0.5 0 1,0 -1,0  M1304.11 442 Q 1266.3 442, 1228.5 212.28 T 1152.89 -17.439999999999998 M 1140.89 -17.439999999999998 m -1, 0 a 1,1 0 1,0 2,0 a 1,1 0 1,0 -2,0 M 1140.89 -17.439999999999998 m -0.5, 0 a 0.5,0.5 0 1,0 1,0 a 0.5,0.5 0 1,0 -1,0  M1140.89 -17.439999999999998 L1140.89 -17.439999999999998 1152.89 -17.439999999999998 M1146.89 -11.439999999999998 L1146.89 -11.439999999999998 1146.89 -23.439999999999998" id="h3651634168" class="r"></path><path d="M 844.22 138.32999999999998 m -1, 0 a 1,1 0 1,0 2,0 a 1,1 0 1,0 -2,0 M 844.22 138.32999999999998 m -0.5, 0 a 0.5,0.5 0 1,0 1,0 a 0.5,0.5 0 1,0 -1,0  M844.22 138.32999999999998 L844.22 138.32999999999998 856.22 138.32999999999998 M 844.22 144.32999999999998 m -1, 0 a 1,1 0 1,0 2,0 a 1,1 0 1,0 -2,0 M 844.22 144.32999999999998 m -0.5, 0 a 0.5,0.5 0 1,0 1,0 a 0.5,0.5 0 1,0 -1,0  M844.22 144.32999999999998 L844.22 144.32999999999998 851.22 138.32999999999998 844.22 132.32999999999998 M 844.22 132.32999999999998 m -1, 0 a 1,1 0 1,0 2,0 a 1,1 0 1,0 -2,0 M 844.22 132.32999999999998 m -0.5, 0 a 0.5,0.5 0 1,0 1,0 a 0.5,0.5 0 1,0 -1,0  M856.22 138.32999999999998 Q 876.39 138.32999999999998, 896.56 60.44 T 936.89 -17.439999999999998 M 948.89 -17.439999999999998 m -1, 0 a 1,1 0 1,0 2,0 a 1,1 0 1,0 -2,0 M 948.89 -17.439999999999998 m -0.5, 0 a 0.5,0.5 0 1,0 1,0 a 0.5,0.5 0 1,0 -1,0  M948.89 -17.439999999999998 L948.89 -17.439999999999998 936.89 -17.439999999999998 M942.89 -11.439999999999998 L942.89 -11.439999999999998 942.89 -23.439999999999998" id="h513373648" class="r"></path><path d="M 651.22 163.32999999999998 m -1, 0 a 1,1 0 1,0 2,0 a 1,1 0 1,0 -2,0 M 651.22 163.32999999999998 m -0.5, 0 a 0.5,0.5 0 1,0 1,0 a 0.5,0.5 0 1,0 -1,0  M651.22 163.32999999999998 L651.22 163.32999999999998 639.22 163.32999999999998 M 651.22 169.32999999999998 m -1, 0 a 1,1 0 1,0 2,0 a 1,1 0 1,0 -2,0 M 651.22 169.32999999999998 m -0.5, 0 a 0.5,0.5 0 1,0 1,0 a 0.5,0.5 0 1,0 -1,0  M651.22 169.32999999999998 L651.22 169.32999999999998 644.22 163.32999999999998 651.22 157.32999999999998 M 651.22 157.32999999999998 m -1, 0 a 1,1 0 1,0 2,0 a 1,1 0 1,0 -2,0 M 651.22 157.32999999999998 m -0.5, 0 a 0.5,0.5 0 1,0 1,0 a 0.5,0.5 0 1,0 -1,0  M639.22 163.32999999999998 C 176.59599999999995 163.32999999999998, 331.33 111.67, 381.33 111.67 M 393.33 111.67 m -1, 0 a 1,1 0 1,0 2,0 a 1,1 0 1,0 -2,0 M 393.33 111.67 m -0.5, 0 a 0.5,0.5 0 1,0 1,0 a 0.5,0.5 0 1,0 -1,0  M393.33 111.67 L393.33 111.67 381.33 111.67 M387.33 117.67 L387.33 117.67 387.33 105.67" id="h2844235764" class="r"></path><path d="M 849.45 403.22 m -1, 0 a 1,1 0 1,0 2,0 a 1,1 0 1,0 -2,0 M 849.45 403.22 m -0.5, 0 a 0.5,0.5 0 1,0 1,0 a 0.5,0.5 0 1,0 -1,0  M849.45 403.22 L849.45 403.22 861.45 403.22 M 849.45 409.22 m -1, 0 a 1,1 0 1,0 2,0 a 1,1 0 1,0 -2,0 M 849.45 409.22 m -0.5, 0 a 0.5,0.5 0 1,0 1,0 a 0.5,0.5 0 1,0 -1,0  M849.45 409.22 L849.45 409.22 856.45 403.22 849.45 397.22 M 849.45 397.22 m -1, 0 a 1,1 0 1,0 2,0 a 1,1 0 1,0 -2,0 M 849.45 397.22 m -0.5, 0 a 0.5,0.5 0 1,0 1,0 a 0.5,0.5 0 1,0 -1,0  M861.45 403.22 Q 880.31 403.22, 899.17 192.89 T 936.89 -17.439999999999998 M 948.89 -17.439999999999998 m -1, 0 a 1,1 0 1,0 2,0 a 1,1 0 1,0 -2,0 M 948.89 -17.439999999999998 m -0.5, 0 a 0.5,0.5 0 1,0 1,0 a 0.5,0.5 0 1,0 -1,0  M948.89 -17.439999999999998 L948.89 -17.439999999999998 936.89 -17.439999999999998 M942.89 -11.439999999999998 L942.89 -11.439999999999998 942.89 -23.439999999999998" id="h3971138114" class="r"></path><path d="M 650.45 428.22 m -1, 0 a 1,1 0 1,0 2,0 a 1,1 0 1,0 -2,0 M 650.45 428.22 m -0.5, 0 a 0.5,0.5 0 1,0 1,0 a 0.5,0.5 0 1,0 -1,0  M650.45 428.22 L650.45 428.22 638.45 428.22 M 650.45 434.22 m -1, 0 a 1,1 0 1,0 2,0 a 1,1 0 1,0 -2,0 M 650.45 434.22 m -0.5, 0 a 0.5,0.5 0 1,0 1,0 a 0.5,0.5 0 1,0 -1,0  M650.45 434.22 L650.45 434.22 643.45 428.22 650.45 422.22 M 650.45 422.22 m -1, 0 a 1,1 0 1,0 2,0 a 1,1 0 1,0 -2,0 M 650.45 422.22 m -0.5, 0 a 0.5,0.5 0 1,0 1,0 a 0.5,0.5 0 1,0 -1,0  M638.45 428.22 Q 623.23 428.22, 608.01 471.22 T 577.56 514.22 M 565.56 514.22 m -1, 0 a 1,1 0 1,0 2,0 a 1,1 0 1,0 -2,0 M 565.56 514.22 m -0.5, 0 a 0.5,0.5 0 1,0 1,0 a 0.5,0.5 0 1,0 -1,0  M565.56 514.22 L565.56 514.22 577.56 514.22 M571.56 520.22 L571.56 520.22 571.56 508.22" id="h4177685855" class="r"></path><path d="M 853.78 -31.439999999999998 m -1, 0 a 1,1 0 1,0 2,0 a 1,1 0 1,0 -2,0 M 853.78 -31.439999999999998 m -0.5, 0 a 0.5,0.5 0 1,0 1,0 a 0.5,0.5 0 1,0 -1,0  M853.78 -31.439999999999998 L853.78 -31.439999999999998 865.78 -31.439999999999998 M 853.78 -25.439999999999998 m -1, 0 a 1,1 0 1,0 2,0 a 1,1 0 1,0 -2,0 M 853.78 -25.439999999999998 m -0.5, 0 a 0.5,0.5 0 1,0 1,0 a 0.5,0.5 0 1,0 -1,0  M853.78 -25.439999999999998 L853.78 -25.439999999999998 860.78 -31.439999999999998 853.78 -37.44 M 853.78 -37.44 m -1, 0 a 1,1 0 1,0 2,0 a 1,1 0 1,0 -2,0 M 853.78 -37.44 m -0.5, 0 a 0.5,0.5 0 1,0 1,0 a 0.5,0.5 0 1,0 -1,0  M865.78 -31.439999999999998 Q 883.56 -31.439999999999998, 901.34 -24.44 T 936.89 -17.439999999999998 M 948.89 -17.439999999999998 m -1, 0 a 1,1 0 1,0 2,0 a 1,1 0 1,0 -2,0 M 948.89 -17.439999999999998 m -0.5, 0 a 0.5,0.5 0 1,0 1,0 a 0.5,0.5 0 1,0 -1,0  M948.89 -17.439999999999998 L948.89 -17.439999999999998 936.89 -17.439999999999998 M942.89 -11.439999999999998 L942.89 -11.439999999999998 942.89 -23.439999999999998" id="h4163681741" class="r"></path><path d="M 662.78 -6.439999999999998 m -1, 0 a 1,1 0 1,0 2,0 a 1,1 0 1,0 -2,0 M 662.78 -6.439999999999998 m -0.5, 0 a 0.5,0.5 0 1,0 1,0 a 0.5,0.5 0 1,0 -1,0  M662.78 -6.439999999999998 L662.78 -6.439999999999998 650.78 -6.439999999999998 M 662.78 -0.4399999999999977 m -1, 0 a 1,1 0 1,0 2,0 a 1,1 0 1,0 -2,0 M 662.78 -0.4399999999999977 m -0.5, 0 a 0.5,0.5 0 1,0 1,0 a 0.5,0.5 0 1,0 -1,0  M662.78 -0.4399999999999977 L662.78 -0.4399999999999977 655.78 -6.439999999999998 662.78 -12.439999999999998 M 662.78 -12.439999999999998 m -1, 0 a 1,1 0 1,0 2,0 a 1,1 0 1,0 -2,0 M 662.78 -12.439999999999998 m -0.5, 0 a 0.5,0.5 0 1,0 1,0 a 0.5,0.5 0 1,0 -1,0  M650.78 -6.439999999999998 Q 635.11 -6.439999999999998, 619.44 -22.44 T 588.11 -38.44 M 576.11 -38.44 m -1, 0 a 1,1 0 1,0 2,0 a 1,1 0 1,0 -2,0 M 576.11 -38.44 m -0.5, 0 a 0.5,0.5 0 1,0 1,0 a 0.5,0.5 0 1,0 -1,0  M576.11 -38.44 L576.11 -38.44 588.11 -38.44 M582.11 -32.44 L582.11 -32.44 582.11 -44.44" id="h1728345821" class="r"></path></g><g class="hrs"></g><g class="ts"><svg width="192" height="300" x="948.89" y="-74.44" id="h2728321744" class="t"><rect height="40" width="192" class="th"></rect><text x="13" y="25" class="tht">user</text><rect height="260" width="192" class="t-bg" y="40"></rect><text x="13" y="61" class="tf pk">UserID<tspan x="179" class="ty">IntegerField</tspan></text><path d="M7,14A2,2 0 0,1 5,12A2,2 0 0,1 7,10A2,2 0 0,1 9,12A2,2 0 0,1 7,14M12.65,10C11.83,7.67 9.61,6 7, 6A6, 6 0 0, 0 1, 12A6, 6 0 0, 0 7, 18C9.61, 18 11.83, 16.33 12.65, 14H17V18H21V14H23V10H12.65Z" class="i pk" transform="translate(94, 48) scale(0.65)"></path><text x="13" y="86" class="tf">UserName<tspan x="179" class="ty">CharField</tspan></text><path d="M22,18V22H18V19H15V16H12L9.74,13.74C9.19,13.91 8.61,14 8,14A6,6 0 0,1 2,8A6,6 0 0,1 8,2A6,6 0 0,1 14,8C14,8.61 13.91, 9.19 13.74, 9.74L22, 18M7, 5A2, 2 0 0, 0 5, 7A2, 2 0 0, 0 7, 9A2, 2 0 0, 0 9, 7A2, 2 0 0, 0 7, 5Z" class="i uq" transform="translate(109, 75.5) scale(0.5)"></path><text x="13" y="111" class="tf">Email<tspan x="179" class="ty">CharField</tspan></text><path d="M22,18V22H18V19H15V16H12L9.74,13.74C9.19,13.91 8.61,14 8,14A6,6 0 0,1 2,8A6,6 0 0,1 8,2A6,6 0 0,1 14,8C14,8.61 13.91, 9.19 13.74, 9.74L22, 18M7, 5A2, 2 0 0, 0 5, 7A2, 2 0 0, 0 7, 9A2, 2 0 0, 0 9, 7A2, 2 0 0, 0 7, 5Z" class="i uq" transform="translate(109, 100.5) scale(0.5)"></path><text x="13" y="136" class="tf">FirstName<tspan x="179" class="ty">CharField</tspan></text><text x="13" y="161" class="tf">LastName<tspan x="179" class="ty">CharField</tspan></text><text x="13" y="186" class="tf">ProfileImage<tspan x="179" class="ty">ImageField?</tspan></text><text x="13" y="211" class="tf">Weight<tspan x="179" class="ty">IntegerField?</tspan></text><text x="13" y="236" class="tf">Gender<tspan x="179" class="ty">CharField?</tspan></text><text x="13" y="261" class="tf">Age<tspan x="179" class="ty">IntegerField?</tspan></text><text x="13" y="286" class="tf">Date<tspan x="179" class="ty">DateField</tspan></text></svg><svg width="188" height="350" x="393.33" y="54.67" id="h1990572678" class="t"><rect height="40" width="188" class="th"></rect><text x="13" y="25" class="tht">Recipe</text><rect height="310" width="188" class="t-bg" y="40"></rect><text x="13" y="61" class="tf pk">RecipeID<tspan x="175" class="ty">IntegerField</tspan></text><path d="M7,14A2,2 0 0,1 5,12A2,2 0 0,1 7,10A2,2 0 0,1 9,12A2,2 0 0,1 7,14M12.65,10C11.83,7.67 9.61,6 7, 6A6, 6 0 0, 0 1, 12A6, 6 0 0, 0 7, 18C9.61, 18 11.83, 16.33 12.65, 14H17V18H21V14H23V10H12.65Z" class="i pk" transform="translate(90, 48) scale(0.65)"></path><text x="13" y="86" class="tf">Name<tspan x="175" class="ty">CharField</tspan></text><text x="13" y="111" class="tf">RecipeCategory<tspan x="175" class="ty">CharField</tspan></text><text x="13" y="136" class="tf">Type<tspan x="175" class="ty">CharField</tspan></text><text x="13" y="161" class="tf">CoverImage<tspan x="175" class="ty">ImageField</tspan></text><text x="13" y="186" class="tf">Description<tspan x="175" class="ty">TextField</tspan></text><text x="13" y="211" class="tf">PrepTime<tspan x="175" class="ty">IntegerField</tspan></text><text x="13" y="236" class="tf">CookTime<tspan x="175" class="ty">IntegerField</tspan></text><text x="13" y="261" class="tf">Ingredients<tspan x="175" class="ty">TextField</tspan></text><text x="13" y="286" class="tf">Preparation<tspan x="175" class="ty">TextField</tspan></text><text x="13" y="311" class="tf">Notes<tspan x="175" class="ty">TextField</tspan></text><text x="13" y="336" class="tf">Date<tspan x="175" class="ty">DateField</tspan></text></svg><svg width="195" height="325" x="370.56" y="457.22" id="h3713540593" class="t"><rect height="40" width="195" class="th"></rect><text x="13" y="25" class="tht">Workouts</text><rect height="285" width="195" class="t-bg" y="40"></rect><text x="13" y="61" class="tf pk">WorkoutsID<tspan x="182" class="ty">IntegerField</tspan></text><path d="M7,14A2,2 0 0,1 5,12A2,2 0 0,1 7,10A2,2 0 0,1 9,12A2,2 0 0,1 7,14M12.65,10C11.83,7.67 9.61,6 7, 6A6, 6 0 0, 0 1, 12A6, 6 0 0, 0 7, 18C9.61, 18 11.83, 16.33 12.65, 14H17V18H21V14H23V10H12.65Z" class="i pk" transform="translate(97, 48) scale(0.65)"></path><text x="13" y="86" class="tf">Name<tspan x="182" class="ty">CharField</tspan></text><text x="13" y="111" class="tf">WorkoutCategory<tspan x="182" class="ty">CharField</tspan></text><text x="13" y="136" class="tf">Type<tspan x="182" class="ty">CharField</tspan></text><text x="13" y="161" class="tf">CoverImage<tspan x="182" class="ty">ImageField</tspan></text><text x="13" y="186" class="tf">Description<tspan x="182" class="ty">TextField</tspan></text><text x="13" y="211" class="tf">CaloriesBurn<tspan x="182" class="ty">IntegerField</tspan></text><text x="13" y="236" class="tf">Duration<tspan x="182" class="ty">IntegerField</tspan></text><text x="13" y="261" class="tf">Steps<tspan x="182" class="ty">TextField</tspan></text><text x="13" y="286" class="tf">VideoURL<tspan x="182" class="ty">URLField</tspan></text><text x="13" y="311" class="tf">Date<tspan x="182" class="ty">DateField</tspan></text></svg><svg width="180" height="125" x="396.11" y="-95.44" id="h3237104093" class="t"><rect height="40" width="180" class="th"></rect><text x="13" y="25" class="tht">Mantras</text><rect height="85" width="180" class="t-bg" y="40"></rect><text x="13" y="61" class="tf pk">MantraID<tspan x="167" class="ty">IntegerField</tspan></text><path d="M7,14A2,2 0 0,1 5,12A2,2 0 0,1 7,10A2,2 0 0,1 9,12A2,2 0 0,1 7,14M12.65,10C11.83,7.67 9.61,6 7, 6A6, 6 0 0, 0 1, 12A6, 6 0 0, 0 7, 18C9.61, 18 11.83, 16.33 12.65, 14H17V18H21V14H23V10H12.65Z" class="i pk" transform="translate(82, 48) scale(0.65)"></path><text x="13" y="86" class="tf">Description<tspan x="167" class="ty">TextField</tspan></text><text x="13" y="111" class="tf">Date<tspan x="167" class="ty">DateField</tspan></text></svg><svg width="195" height="250" x="1309" y="-200.67" id="h2207534861" class="t"><rect height="40" width="195" class="th"></rect><text x="13" y="25" class="tht">Goals</text><rect height="210" width="195" class="t-bg" y="40"></rect><text x="13" y="61" class="tf pk">GoalID<tspan x="182" class="ty">IntegerField</tspan></text><path d="M7,14A2,2 0 0,1 5,12A2,2 0 0,1 7,10A2,2 0 0,1 9,12A2,2 0 0,1 7,14M12.65,10C11.83,7.67 9.61,6 7, 6A6, 6 0 0, 0 1, 12A6, 6 0 0, 0 7, 18C9.61, 18 11.83, 16.33 12.65, 14H17V18H21V14H23V10H12.65Z" class="i pk" transform="translate(97, 48) scale(0.65)"></path><text x="13" y="86" class="tf fk">UserID<tspan x="182" class="ty">ForeignKey</tspan></text><text x="13" y="111" class="tf">Name<tspan x="182" class="ty">CharField</tspan></text><text x="13" y="136" class="tf">Type<tspan x="182" class="ty">CharField</tspan></text><text x="13" y="161" class="tf">Description<tspan x="182" class="ty">TextField</tspan></text><text x="13" y="186" class="tf">NumberToGoal<tspan x="182" class="ty">IntegerField</tspan></text><text x="13" y="211" class="tf">Complete<tspan x="182" class="ty">BooleanField</tspan></text><text x="13" y="236" class="tf">Date<tspan x="182" class="ty">DateField</tspan></text></svg><svg width="184" height="225" x="1314" y="79.11" id="h4067918098" class="t"><rect height="40" width="184" class="th"></rect><text x="13" y="25" class="tht">Journal</text><rect height="185" width="184" class="t-bg" y="40"></rect><text x="13" y="61" class="tf pk">JournalID<tspan x="171" class="ty">IntegerField</tspan></text><path d="M7,14A2,2 0 0,1 5,12A2,2 0 0,1 7,10A2,2 0 0,1 9,12A2,2 0 0,1 7,14M12.65,10C11.83,7.67 9.61,6 7, 6A6, 6 0 0, 0 1, 12A6, 6 0 0, 0 7, 18C9.61, 18 11.83, 16.33 12.65, 14H17V18H21V14H23V10H12.65Z" class="i pk" transform="translate(86, 48) scale(0.65)"></path><text x="13" y="86" class="tf fk">UserID<tspan x="171" class="ty">ForeignKey</tspan></text><text x="13" y="111" class="tf">Name<tspan x="171" class="ty">CharField</tspan></text><text x="13" y="136" class="tf">Type<tspan x="171" class="ty">CharField</tspan></text><text x="13" y="161" class="tf">Description<tspan x="171" class="ty">TextField</tspan></text><text x="13" y="186" class="tf">Favorite<tspan x="171" class="ty">BooleanField</tspan></text><text x="13" y="211" class="tf">Date<tspan x="171" class="ty">DateField</tspan></text></svg><svg width="169" height="200" x="1316.11" y="360" id="h1248930275" class="t"><rect height="40" width="169" class="th"></rect><text x="13" y="25" class="tht">Meals</text><rect height="160" width="169" class="t-bg" y="40"></rect><text x="13" y="61" class="tf pk">MealID<tspan x="156" class="ty">IntegerField</tspan></text><path d="M7,14A2,2 0 0,1 5,12A2,2 0 0,1 7,10A2,2 0 0,1 9,12A2,2 0 0,1 7,14M12.65,10C11.83,7.67 9.61,6 7, 6A6, 6 0 0, 0 1, 12A6, 6 0 0, 0 7, 18C9.61, 18 11.83, 16.33 12.65, 14H17V18H21V14H23V10H12.65Z" class="i pk" transform="translate(71, 48) scale(0.65)"></path><text x="13" y="86" class="tf fk">UserID<tspan x="156" class="ty">ForeignKey</tspan></text><text x="13" y="111" class="tf">Name<tspan x="156" class="ty">CharField</tspan></text><text x="13" y="136" class="tf">Type<tspan x="156" class="ty">CharField</tspan></text><text x="13" y="161" class="tf">Calories<tspan x="156" class="ty">IntegerField</tspan></text><text x="13" y="186" class="tf">Date<tspan x="156" class="ty">DateField</tspan></text></svg><svg width="193" height="100" x="651.22" y="81.33" id="h3222948148" class="t"><rect height="40" width="193" class="th"></rect><text x="13" y="25" class="tht">FavortieRecipe</text><rect height="60" width="193" class="t-bg" y="40"></rect><text x="13" y="61" class="tf fk">UserID<tspan x="180" class="ty">ManyToManyField</tspan></text><text x="13" y="86" class="tf fk">RecipeID<tspan x="180" class="ty">ManyToManyField</tspan></text></svg><svg width="199" height="100" x="650.45" y="346.22" id="h3440468218" class="t"><rect height="40" width="199" class="th"></rect><text x="13" y="25" class="tht">FavoriteWorkout</text><rect height="60" width="199" class="t-bg" y="40"></rect><text x="13" y="61" class="tf fk">UserID<tspan x="186" class="ty">ManyToManyField</tspan></text><text x="13" y="86" class="tf fk">WorkoutID<tspan x="186" class="ty">ManyToManyField</tspan></text></svg><svg width="191" height="100" x="662.78" y="-88.44" id="h1244673762" class="t"><rect height="40" width="191" class="th"></rect><text x="13" y="25" class="tht">FavoriteMantra</text><rect height="60" width="191" class="t-bg" y="40"></rect><text x="13" y="61" class="tf fk">UserID<tspan x="178" class="ty">ManyToManyField</tspan></text><text x="13" y="86" class="tf fk">MantraID<tspan x="178" class="ty">ManyToManyField</tspan></text></svg></g></g><text class="qdbd-link" x="10" y="20">www.quickdatabasediagrams.com</text></svg>